PathFileType	4	(X/Y/Z)	C:\Users\Basilio\Documents\Thesis Gigler\squatting_fais\c3dfiles\041\SLS_pre_front5\markers_experimental.trc
DataRate	CameraRate	NumFrames	NumMarkers	Units	OrigDataRate	OrigDataStartFrame	OrigNumFrames
200.000000	200.000000	4	62	mm	200.000000	805	1289
Frame#	Time	FHD			LBHD			RBHD			C7			T10			CLAV			LSHO			LUUPA			LMUPA			LDUPA			LLEP			LMEP			LRAD			LUL			LRFIN			RSHO			RUPA1			RMUPA			RDUPA			RLEP			RMEP			RRAD			RUL			RUFIN			LASI			RASI			USACR			LSACR			RSACR			LTHI1			LTHI2			LTHI3			LTHI4			LLFC			LMFC			LTIB1			LTIB2			LTIB3			LTIB4			LLMAL			LMMAL			LHEE			LMT1			LMT2			LMT5			RTHI			RTHI2			RTHI3			RTHI4			RLFC			RMFC			RTIB1			RTIB2			RTIB3			RTIB4			RLMAL			RMMAL			RHEE			RMT1			RMT2			RMT5			*61			
		X1	Y1	Z1	X2	Y2	Z2	X3	Y3	Z3	X4	Y4	Z4	X5	Y5	Z5	X6	Y6	Z6	X7	Y7	Z7	X8	Y8	Z8	X9	Y9	Z9	X10	Y10	Z10	X11	Y11	Z11	X12	Y12	Z12	X13	Y13	Z13	X14	Y14	Z14	X15	Y15	Z15	X16	Y16	Z16	X17	Y17	Z17	X18	Y18	Z18	X19	Y19	Z19	X20	Y20	Z20	X21	Y21	Z21	X22	Y22	Z22	X23	Y23	Z23	X24	Y24	Z24	X25	Y25	Z25	X26	Y26	Z26	X27	Y27	Z27	X28	Y28	Z28	X29	Y29	Z29	X30	Y30	Z30	X31	Y31	Z31	X32	Y32	Z32	X33	Y33	Z33	X34	Y34	Z34	X35	Y35	Z35	X36	Y36	Z36	X37	Y37	Z37	X38	Y38	Z38	X39	Y39	Z39	X40	Y40	Z40	X41	Y41	Z41	X42	Y42	Z42	X43	Y43	Z43	X44	Y44	Z44	X45	Y45	Z45	X46	Y46	Z46	X47	Y47	Z47	X48	Y48	Z48	X49	Y49	Z49	X50	Y50	Z50	X51	Y51	Z51	X52	Y52	Z52	X53	Y53	Z53	X54	Y54	Z54	X55	Y55	Z55	X56	Y56	Z56	X57	Y57	Z57	X58	Y58	Z58	X59	Y59	Z59	X60	Y60	Z60	X61	Y61	Z61	X62	Y62	Z62	

806	4.025	-145.1012878417969	1543.686645507813	-1089.160400390625	-325.0747070312501	1475.536499023438	-1156.372924804688	-299.4041137695313	1482.569213867188	-1005.024291992188	-370.7254333496094	1361.979614257813	-1086.979614257813	-512.4186401367189	1089.116455078125	-1051.020141601563	-233.1913299560547	1268.647216796875	-1090.262451171875	-305.8917541503907	1356.821899414063	-1219.720458984375	-233.3573913574219	1359.261352539063	-1368.363647460938	-186.7785034179688	1369.425903320313	-1359.866455078125	-186.5205383300782	1358.190307617188	-1420.485595703125	-150.8706207275391	1354.677612304688	-1448.763793945313	-99.96499633789065	1287.156494140625	-1425.294067382813	95.16490173339845	1392.95166015625	-1562.132202148438	52.83597946166994	1389.237915039063	-1622.378540039063	143.1287231445313	1441.994995117188	-1598.485473632813	-280.5113220214844	1379.664306640625	-981.0034790039065	-144.1902465820313	1387.228515625	-859.016296386719	-124.3360595703125	1408.419555664063	-900.8854980468752	-77.31491851806642	1409.573364257813	-863.6259765625002	-32.68038177490235	1414.3857421875	-863.3010253906252	-9.904065132141115	1332.786865234375	-877.4102783203127	234.5712127685547	1417.353149414063	-903.2738037109377	227.1802673339844	1446.278076171875	-834.6179199218752	318.2597351074219	1431.067504882813	-902.5101318359377	-389.7476501464845	878.2554321289065	-1149.663208007813	-398.549041748047	875.078796386719	-924.9590454101565	-564.4275512695314	962.7316894531252	-1043.849243164063	-581.6322631835939	938.3305664062502	-1072.53857421875	-586.5378417968751	936.7334594726565	-1018.493041992188	-398.629852294922	689.5313720703126	-1212.691772460938	-319.2807006835938	657.9561767578126	-1203.815551757813	-285.8777465820313	690.1893310546876	-1194.066528320313	-304.6262817382813	599.0905761718751	-1191.969848632813	-186.3994140625	479.663543701172	-1155.728515625	-187.8984527587891	477.5647277832032	-1038.692993164063	-219.8393859863282	303.3396606445313	-1076.096069335938	-276.9687500000001	273.2796325683594	-1138.333862304688	-245.3782196044922	259.4182739257813	-1109.11083984375	-280.9996032714844	195.5563507080079	-1068.149169921875	-373.7038574218751	129.7354736328125	-1105.650024414063	-337.4409179687501	135.93603515625	-1021.171630859375	-447.1286621093751	116.4381713867188	-1061.86376953125	-241.0926513671876	61.0314407348633	-1038.129516601563	-235.1549224853516	56.59531402587892	-1084.300415039063	-284.4630432128907	45.50116729736329	-1136.512084960938	-362.5726318359376	643.7536621093751	-866.9049072265627	-297.0868835449219	641.2000122070314	-863.721130371094	-277.5601501464844	668.8572998046876	-866.8020629882815	-250.3831329345704	573.2418212890626	-886.4555664062502	-148.0011138916016	502.4093627929689	-892.5921630859377	-117.3105392456055	517.1354980468751	-1008.317504882813	-2.383185625076294	413.231414794922	-903.2099609375002	-5.68520212173462	299.9949035644532	-899.2541503906252	29.00224685668946	331.6306762695313	-896.367126464844	79.97097015380861	317.2210083007813	-922.3403930664065	130.7810363769532	191.6126098632813	-918.3364257812502	138.0180206298828	236.1322479248047	-994.608825683594	126.3912506103516	127.1993103027344	-976.986999511719	266.2612915039063	292.3944396972657	-963.0194091796877	262.8817138671876	291.2778625488282	-910.090759277344	252.6297912597657	238.0565032958985	-871.7408447265627	-4217.114746093751	853.2000732421877	-3944.799316406251	
807	4.03	-144.6500244140625	1544.188842773438	-1089.129638671875	-324.9891357421876	1476.197265625	-1156.327758789063	-299.6408081054688	1483.161010742188	-1005.000061035156	-370.7076416015626	1362.738403320313	-1087.062744140625	-512.4061279296876	1089.676635742188	-1050.984252929688	-233.1221466064454	1269.300415039063	-1090.171630859375	-305.8724670410157	1357.4873046875	-1219.795532226563	-233.355453491211	1359.93115234375	-1368.471313476563	-186.6277465820313	1370.091796875	-1359.960083007813	-186.353271484375	1358.4345703125	-1420.376342773438	-150.6791076660157	1355.21142578125	-1448.752563476563	-99.7250900268555	1287.890380859375	-1425.175537109375	95.78271484375001	1394.202270507813	-1561.767822265625	53.14041137695314	1389.838989257813	-1622.1025390625	143.3724670410157	1442.621948242188	-1598.17724609375	-280.5148925781251	1380.476928710938	-981.0124511718752	-144.3703765869141	1388.021362304688	-859.0098266601565	-124.1466522216797	1408.941772460938	-900.8933715820315	-77.30904388427736	1410.34619140625	-863.4993286132815	-32.78024291992188	1415.195922851563	-863.2534179687502	-9.675364494323732	1333.874755859375	-877.6116333007815	234.5405731201172	1417.800537109375	-902.9647216796877	227.1695404052735	1447.019409179688	-834.3628540039065	318.0915527343751	1431.775146484375	-902.2655029296877	-389.5610961914064	878.9668579101565	-1149.735107421875	-398.3273925781251	875.7508544921877	-924.796569824219	-564.2477416992189	963.3198852539065	-1043.783569335938	-581.4707641601564	938.9460449218752	-1072.422607421875	-586.4532470703126	937.3247070312502	-1018.329040527344	-398.6587219238282	689.9719848632814	-1212.594360351563	-319.3091125488282	658.3308715820314	-1203.7578125	-285.8339843750001	690.5706787109376	-1194.033569335938	-304.7422180175782	599.2721557617189	-1191.87109375	-186.6505279541016	479.829803466797	-1155.709838867188	-188.1062622070313	477.6131286621095	-1038.618408203125	-219.9131774902344	303.3955688476563	-1076.236694335938	-277.2124633789063	272.6889953613282	-1138.544921875	-245.4029541015626	258.9709472656251	-1109.456665039063	-281.0715942382813	195.5768737792969	-1068.220703125	-373.6980590820313	129.7169494628907	-1105.675903320313	-337.4410400390626	135.9723052978516	-1021.249816894531	-447.1089172363282	116.4773559570313	-1061.909912109375	-241.1127929687501	60.99859619140626	-1038.139404296875	-235.1893920898438	56.55695724487306	-1084.315185546875	-284.4744262695313	45.44102859497071	-1136.579711914063	-362.5243225097657	644.4369506835939	-866.6318359375002	-296.7459106445313	641.7890625000001	-863.706970214844	-277.4013366699219	669.2666625976564	-866.8681640625002	-250.3606109619141	573.6132202148439	-886.2429809570315	-148.0416412353516	502.9429016113282	-892.2894287109377	-117.3361358642578	517.3630981445314	-1008.168212890625	-2.426976442337037	413.5187377929689	-903.0074462890627	-5.655386447906495	300.2703552246094	-899.0672607421877	28.7451572418213	331.9242553710938	-896.0921630859377	79.87319946289064	317.4740905761719	-922.1694335937502	130.3328247070313	191.9678955078125	-918.0017700195315	137.8022766113282	236.2921142578126	-994.4359130859377	126.2161483764649	127.2804641723633	-976.7099609375002	265.9963684082032	292.5344543457032	-962.9104614257815	262.6155700683594	291.6456298828126	-909.9534301757815	252.3846588134766	238.4041442871094	-871.5375976562502	-4217.475585937501	853.2131958007815	-3944.655517578126	
808	4.035	-144.8487396240235	1545.060302734375	-1088.904663085938	-324.9527282714844	1476.777954101563	-1156.357177734375	-299.7169799804688	1483.889404296875	-1004.931945800781	-370.7322082519532	1363.32177734375	-1087.041137695313	-512.3745117187501	1090.273681640625	-1050.813232421875	-233.2304077148438	1270.081787109375	-1090.015502929688	-305.8648376464844	1358.103149414063	-1219.768676757813	-233.2357788085938	1360.359619140625	-1368.537841796875	-186.5692138671875	1370.52294921875	-1359.927856445313	-186.2553100585938	1358.900512695313	-1420.3857421875	-150.6042175292969	1355.683837890625	-1448.703491210938	-99.53363800048831	1288.408813476563	-1425.0771484375	96.06150054931643	1394.912963867188	-1561.422241210938	53.33380508422853	1390.498168945313	-1621.880126953125	143.5620269775391	1443.250122070313	-1597.921020507813	-280.5014953613282	1381.201416015625	-980.9612426757815	-144.2921905517578	1388.695678710938	-858.975036621094	-124.2443008422852	1409.861206054688	-900.8258056640627	-77.56517791748048	1411.185791015625	-863.2661743164065	-32.80611419677735	1416.051147460938	-863.2155761718752	-9.601194381713869	1334.645263671875	-877.7180175781252	234.5798950195313	1418.580322265625	-902.6855468750002	227.030014038086	1447.809936523438	-834.1885986328127	318.2837829589844	1432.55126953125	-902.1300048828127	-389.3207397460939	879.5840454101565	-1149.732421875	-398.0967102050782	876.371765136719	-924.7065429687502	-564.0263671875001	963.969665527344	-1043.767944335938	-581.3231811523439	939.544860839844	-1072.325927734375	-586.7056884765626	937.9227294921877	-1018.638244628906	-398.6283569335939	690.4960327148439	-1212.43359375	-319.3195495605469	658.6690063476564	-1203.658935546875	-285.7536315917969	690.8961791992189	-1193.984008789063	-304.8615722656251	599.6665649414064	-1191.811645507813	-186.902572631836	480.021697998047	-1155.746704101563	-188.2103118896485	477.7110595703126	-1038.724609375	-219.9582672119141	303.4669189453126	-1076.488159179688	-277.3866577148438	272.7401733398438	-1138.745361328125	-245.5316314697266	259.0404357910157	-1109.752197265625	-281.1697082519532	195.6009521484376	-1068.388305664063	-373.8464965820313	129.7845001220703	-1105.6826171875	-337.4577941894532	135.98828125	-1021.292236328125	-447.1130981445314	116.4610290527344	-1061.972045898438	-241.0723419189454	61.04691314697267	-1038.1640625	-235.2087097167969	56.54305267333986	-1084.266845703125	-284.4589843750001	45.36785888671876	-1136.56640625	-362.4437561035157	645.0368652343751	-866.4720458984377	-296.5835876464844	642.1630249023439	-863.6611328125002	-277.4278259277344	669.7265625000001	-866.7274169921877	-250.4583740234376	574.1342163085939	-886.0120239257815	-148.1244506835938	503.416473388672	-892.0964355468752	-117.4921340942383	517.5904541015626	-1007.917175292969	-2.469926118850708	413.7454833984376	-902.7912597656252	-5.884667873382569	300.4310607910157	-899.0759887695315	28.64931297302247	332.1507263183594	-895.9141235351565	79.6840057373047	317.5754699707032	-921.9204711914065	130.208724975586	192.2242889404297	-917.8422851562502	137.6320343017578	236.4359436035157	-994.2407226562502	126.0631637573242	127.3833923339844	-976.5107421875002	265.8612670898438	292.6857299804688	-962.7803955078127	262.3506164550782	292.0095520019532	-909.9734497070315	252.284652709961	238.6170196533204	-871.4864501953127	-4216.707031250001	853.1316528320315	-3944.676513671876	
809	4.04	-144.7144470214844	1545.76708984375	-1088.86083984375	-324.9590759277344	1477.51611328125	-1156.419311523438	-299.9073181152344	1484.50048828125	-1004.7744140625	-370.8014221191407	1364.04736328125	-1087.043090820313	-512.2393188476564	1091.001831054688	-1050.803466796875	-233.2913818359376	1270.722045898438	-1089.877563476563	-305.8600463867188	1358.704223632813	-1219.853881835938	-233.177963256836	1360.840454101563	-1368.646362304688	-186.5441436767578	1370.91015625	-1359.952880859375	-186.3152160644532	1359.465087890625	-1420.3857421875	-150.4682006835938	1356.144653320313	-1448.7314453125	-99.38772583007815	1289.058227539063	-1424.90576171875	96.14031219482425	1395.197998046875	-1561.1806640625	53.57998275756837	1391.064697265625	-1621.647094726563	143.7767944335938	1443.849853515625	-1597.624877929688	-280.4420471191407	1381.786987304688	-980.9080200195315	-144.2681121826172	1389.523559570313	-858.8344726562502	-124.4982452392578	1410.62890625	-900.688903808594	-77.34909057617189	1411.913208007813	-863.273132324219	-32.7497787475586	1416.740844726563	-863.0388183593752	-9.881525039672853	1335.21240234375	-877.2709960937502	234.599105834961	1419.287719726563	-902.447204589844	227.0014343261719	1448.506103515625	-833.9454345703127	318.2265625000001	1433.175903320313	-901.8707275390627	-389.1582946777345	880.1829223632815	-1149.531127929688	-397.7332153320314	877.0154418945315	-924.6973876953127	-563.9343872070314	964.6501464843752	-1043.720092773438	-581.1080322265626	940.146179199219	-1072.230712890625	-586.2190551757814	938.556335449219	-1018.355651855469	-398.5844116210939	691.0249023437501	-1212.350952148438	-319.3891906738282	659.0146484375001	-1203.584838867188	-285.7446899414063	691.2778930664064	-1194.00341796875	-304.9584350585938	600.0938110351564	-1191.604614257813	-187.1412200927735	480.1369018554689	-1155.71435546875	-188.6319274902344	477.9296875000001	-1038.575317382813	-220.0555877685547	303.4792785644532	-1076.691650390625	-277.6033935546876	272.7543334960938	-1138.857421875	-245.6280517578126	259.2083435058594	-1109.949829101563	-281.2203979492188	195.6234283447266	-1068.462158203125	-373.8377685546876	129.7462310791016	-1105.723999023438	-337.4591979980469	136.009033203125	-1021.377014160156	-447.1270751953126	116.5397415161133	-1061.9833984375	-241.0865325927735	61.03016662597658	-1038.190673828125	-235.1613464355469	56.53342819213869	-1084.342041015625	-284.4457092285157	45.28722381591798	-1136.581420898438	-362.2490539550782	645.8421020507814	-866.284606933594	-296.7031555175782	643.0842285156251	-863.5361938476565	-277.2404479980469	670.2248535156251	-866.6609497070315	-250.3824157714844	574.6295166015626	-885.9288330078127	-148.3609619140625	503.7986450195314	-891.888122558594	-117.5950927734375	517.8624877929689	-1007.81298828125	-2.687860488891602	413.8217163085939	-903.0260009765627	-6.102340698242189	300.7812194824219	-898.8903808593752	28.35622215270997	332.5043945312501	-895.597595214844	79.57009887695314	317.7833251953126	-921.738220214844	130.0951232910157	192.4559783935547	-917.7364501953127	137.4258575439453	236.6637268066407	-994.0159301757815	125.6976089477539	127.0026550292969	-975.801452636719	265.1484069824219	292.6680297851563	-962.7982177734377	262.2526550292969	292.0293273925782	-909.6773071289065	252.1909942626954	238.9826049804688	-871.4102172851565	-4216.725585937501	853.1075439453127	-3944.797119140626	
